<svg width="73" height="73" viewBox="0 0 73 73" fill="none" xmlns="http://www.w3.org/2000/svg">
<path d="M27.4859 57.9558C26.7463 57.9558 26.0279 57.5721 25.6319 56.8865L22.9942 52.3179C22.4033 51.2948 22.7536 49.9865 23.7767 49.3961C24.7998 48.8058 26.1075 49.1561 26.6979 50.1792L29.3356 54.7478C29.9265 55.7704 29.5762 57.0786 28.5531 57.669C28.2161 57.8634 27.8485 57.9558 27.4859 57.9558Z" fill="#564949"/>
<path d="M37.8219 57.9558C37.0823 57.9558 36.3638 57.5721 35.9678 56.8865L33.3301 52.3179C32.7392 51.2948 33.0895 49.9865 34.1126 49.3961C35.1357 48.8058 36.4434 49.1561 37.0338 50.1792L39.6715 54.7478C40.2624 55.7704 39.9121 57.0786 38.889 57.669C38.552 57.8634 38.1845 57.9558 37.8219 57.9558Z" fill="#564949"/>
<path d="M48.1578 57.9558C47.4182 57.9558 46.6997 57.5721 46.3038 56.8865L43.6661 52.3179C43.0751 51.2948 43.4255 49.9865 44.4486 49.3961C45.4717 48.8058 46.7794 49.1561 47.3697 50.1792L50.0074 54.7478C50.5984 55.7704 50.248 57.0786 49.2249 57.669C48.888 57.8634 48.5204 57.9558 48.1578 57.9558Z" fill="#564949"/>
<path d="M14.68 41.0254L13.9883 45.6943H59.0095L58.3177 41.0254H14.68Z" fill="#564949"/>
<path d="M66.8495 14.9707H6.15034C2.7591 14.9707 0 17.7298 0 21.1205V39.5442C0 42.9355 2.7591 45.6946 6.15034 45.6946H9.66578L9.71089 45.3888L9.83119 44.5779L10.2155 41.9814L10.7201 38.5735C10.8755 37.5253 11.7755 36.7484 12.8359 36.7484H60.1645C61.2244 36.7484 62.1244 37.5247 62.2798 38.5735L62.7844 41.9814L63.1692 44.5779L63.289 45.3888L63.3346 45.6946H66.8501C70.2408 45.6946 72.9999 42.9355 72.9999 39.5442V21.1205C72.9999 17.7298 70.2408 14.9707 66.8495 14.9707ZM58.7009 33.2196C57.4316 33.2196 56.3984 32.1864 56.3984 30.9171C56.3984 29.6479 57.4316 28.6147 58.7009 28.6147C59.9701 28.6147 61.0033 29.6479 61.0033 30.9171C61.0033 32.1864 59.9701 33.2196 58.7009 33.2196ZM58.7009 27.2313C57.4316 27.2313 56.3984 26.1982 56.3984 24.9289C56.3984 23.6596 57.4316 22.6265 58.7009 22.6265C59.9701 22.6265 61.0033 23.6596 61.0033 24.9289C61.0033 26.1982 59.9701 27.2313 58.7009 27.2313Z" fill="#564949"/>
</svg>
