<svg width="67" height="67" viewBox="0 0 67 67" fill="none" xmlns="http://www.w3.org/2000/svg">
<g clip-path="url(#clip0_1696_359)">
<path d="M51.0352 7.85156H54.9609V11.7773H51.0352V7.85156Z" fill="#564949"/>
<path d="M17.666 0C7.90927 0 0 7.90927 0 17.666C0 27.4228 7.90927 35.332 17.666 35.332C27.4228 35.332 35.332 27.4228 35.332 17.666C35.332 7.90927 27.4228 0 17.666 0ZM27.4805 19.6289H15.7031V7.85156H19.6289V15.7031H27.4805V19.6289Z" fill="#564949"/>
<path d="M38.418 23.5547H66.9991V11.7773H54.96V19.6289H51.0343V11.7773H38.4324C38.9427 13.6616 39.2569 15.6245 39.2569 17.666C39.2569 19.709 38.9521 21.6795 38.418 23.5547Z" fill="#564949"/>
<path d="M36.8702 27.4805C33.2854 34.4579 26.027 39.2578 17.666 39.2578C14.1327 39.2578 10.7959 38.394 7.85156 36.8631V67H67V27.4805H36.8702ZM38.723 55.3788L34.9142 54.4261L38.7057 39.2578H31.4062V35.332H43.7357L38.723 55.3788Z" fill="#564949"/>
</g>
<defs>
<clipPath id="clip0_1696_359">
<rect width="67" height="67" fill="white"/>
</clipPath>
</defs>
</svg>
