<svg width="10" height="10" viewBox="0 0 10 10" fill="none" xmlns="http://www.w3.org/2000/svg">
<g clip-path="url(#clip0_1696_447)">
<path d="M10 5C10 7.75709 7.75709 10 5 10C2.24291 10 -9.80407e-08 7.75709 -2.18557e-07 5C-3.39073e-07 2.24291 2.24291 3.39073e-07 5 2.18557e-07C7.75709 9.80407e-08 10 2.24291 10 5ZM4.70541 3.45541L2.62209 5.53875C2.54084 5.62 2.5 5.72666 2.5 5.83334C2.5 5.94 2.54084 6.04668 2.62209 6.12793C2.785 6.29084 3.04834 6.29084 3.21125 6.12793L5 4.33916L6.78875 6.12791C6.95166 6.29082 7.215 6.29082 7.37791 6.12791C7.54082 5.965 7.54082 5.70166 7.37791 5.53875L5.29457 3.45541C5.13166 3.2925 4.86834 3.2925 4.70541 3.45541Z" fill="black"/>
</g>
<defs>
<clipPath id="clip0_1696_447">
<rect width="10" height="10" fill="white" transform="matrix(-4.37114e-08 -1 -1 4.37114e-08 10 10)"/>
</clipPath>
</defs>
</svg>
