<svg width="70" height="70" viewBox="0 0 70 70" fill="none" xmlns="http://www.w3.org/2000/svg">
<path d="M17.5 28.4375V59.0625C17.5 62.6719 20.4531 65.625 24.0625 65.625H45.9375C49.5469 65.625 52.5 62.6719 52.5 59.0625V28.4375H17.5ZM24.0625 32.8125C24.0625 31.6094 25.0469 30.625 26.25 30.625C27.4531 30.625 28.4375 31.6094 28.4375 32.8125V37.1875C28.4375 38.3906 27.4531 39.375 26.25 39.375C25.0469 39.375 24.0625 38.3906 24.0625 37.1875V32.8125Z" fill="#564949"/>
<path d="M45.9375 4.375H24.0625C20.4531 4.375 17.5 7.32812 17.5 10.9375V24.0625H52.5V10.9375C52.5 7.32812 49.5469 4.375 45.9375 4.375ZM28.4375 19.6875C28.4375 20.8906 27.4531 21.875 26.25 21.875C25.0469 21.875 24.0625 20.8906 24.0625 19.6875V17.5C24.0625 16.2969 25.0469 15.3125 26.25 15.3125C27.4531 15.3125 28.4375 16.2969 28.4375 17.5V19.6875Z" fill="#564949"/>
</svg>
