<svg width="66" height="66" viewBox="0 0 66 66" fill="none" xmlns="http://www.w3.org/2000/svg">
<path d="M41.5445 52.2666C40.5852 52.2666 39.7529 51.5536 39.6285 50.5772C39.4941 49.5178 40.2433 48.55 41.3023 48.415C47.4122 47.6366 52.8837 45.9809 56.7086 43.7523C60.2067 41.7144 62.1327 39.3186 62.1327 37.0063C62.1327 34.4579 59.8788 32.3728 57.9876 31.0716C57.1079 30.4664 56.8853 29.2629 57.4906 28.3827C58.0958 27.503 59.2998 27.2805 60.1795 27.8857C63.9872 30.5051 65.9999 33.6588 65.9999 37.0068C65.9999 40.8065 63.4605 44.2946 58.6558 47.0937C54.3309 49.6134 48.4994 51.397 41.7912 52.2515C41.7081 52.2616 41.6256 52.2666 41.5445 52.2666Z" fill="black"/>
<path d="M32.5286 49.4966L27.3724 44.3404C26.6171 43.5851 25.393 43.5851 24.6377 44.3404C23.8829 45.0952 23.8829 46.3198 24.6377 47.0746L26.1443 48.5812C20.3677 47.9845 15.1198 46.6395 11.0562 44.6853C6.4876 42.4884 3.86718 39.6892 3.86718 37.0063C3.86718 34.7308 5.74337 32.3657 9.14981 30.3465C10.0688 29.8022 10.3719 28.6159 9.82757 27.6974C9.28274 26.7785 8.0964 26.4753 7.17795 27.0196C1.24525 30.5364 0 34.3915 0 37.0063C0 41.2965 3.33141 45.2614 9.38043 48.1708C14.0754 50.4282 20.1486 51.9403 26.7651 52.5254L24.6377 54.6529C23.8829 55.4077 23.8829 56.6323 24.6377 57.3876C25.0153 57.7647 25.5103 57.9536 26.0053 57.9536C26.4998 57.9536 26.9947 57.7647 27.3724 57.3876L32.5286 52.2313C33.2834 51.476 33.2834 50.2514 32.5286 49.4966Z" fill="black"/>
<path d="M20.2508 33.1341V32.6689C20.2508 31.0278 19.2463 30.7096 17.8993 30.7096C17.0665 30.7096 16.7971 29.9749 16.7971 29.2403C16.7971 28.5051 17.0665 27.7704 17.8993 27.7704C18.8298 27.7704 19.8097 27.6481 19.8097 25.6641C19.8097 24.2436 19.0016 23.9007 17.997 23.9007C16.7971 23.9007 16.1848 24.1948 16.1848 25.15C16.1848 25.9824 15.8172 26.5458 14.3967 26.5458C12.6333 26.5458 12.4132 26.1782 12.4132 25.0025C12.4132 23.0925 13.7844 20.6187 17.997 20.6187C21.1079 20.6187 23.4589 21.7451 23.4589 25.0518C23.4589 26.8394 22.7977 28.5051 21.5731 29.0686C23.0183 29.6073 24.0712 30.6849 24.0712 32.6689V33.1341C24.0712 37.1509 21.3037 38.6695 17.8746 38.6695C13.662 38.6695 12.0457 36.098 12.0457 34.0405C12.0457 32.9382 12.5109 32.6442 13.8579 32.6442C15.4254 32.6442 15.8172 32.9871 15.8172 33.9181C15.8172 35.0692 16.8952 35.3386 17.997 35.3386C19.6627 35.3386 20.2508 34.7263 20.2508 33.1341Z" fill="black"/>
<path d="M38.9382 32.6689V32.8894C38.9382 37.102 36.3172 38.6695 32.9375 38.6695C29.5577 38.6695 26.9121 37.102 26.9121 32.8894V26.3988C26.9121 22.1862 29.6308 20.6187 33.158 20.6187C37.2971 20.6187 38.9382 23.1902 38.9382 25.223C38.9382 26.3988 38.3747 26.7659 37.1501 26.7659C36.0972 26.7659 35.1662 26.4965 35.1662 25.3701C35.1662 24.4395 34.1868 23.9496 33.0357 23.9496C31.5905 23.9496 30.733 24.7089 30.733 26.3988V28.6028C31.517 27.7458 32.6193 27.5252 33.795 27.5252C36.5866 27.5252 38.9382 28.7498 38.9382 32.6689ZM30.733 33.1588C30.733 34.8487 31.5659 35.5833 32.9375 35.5833C34.3091 35.5833 35.1173 34.8487 35.1173 33.1588V32.9382C35.1173 31.1502 34.3091 30.4644 32.9128 30.4644C31.5905 30.4644 30.733 31.1013 30.733 32.7177V33.1588Z" fill="black"/>
<path d="M41.9015 32.8894V26.3988C41.9015 22.1862 44.5219 20.6187 47.9022 20.6187C51.2819 20.6187 53.927 22.1862 53.927 26.3988V32.8894C53.927 37.102 51.2819 38.6695 47.9022 38.6695C44.5219 38.6695 41.9015 37.102 41.9015 32.8894ZM50.1062 26.3988C50.1062 24.7089 49.2738 23.9496 47.9022 23.9496C46.5305 23.9496 45.7224 24.7089 45.7224 26.3988V32.8894C45.7224 34.5793 46.5305 35.3386 47.9022 35.3386C49.2738 35.3386 50.1062 34.5793 50.1062 32.8894V26.3988Z" fill="black"/>
<path d="M58.5686 20.6015C55.3697 20.6015 52.7679 17.9993 52.7679 14.8008C52.7679 11.6023 55.3697 9 58.5686 9C61.7671 9 64.3694 11.6023 64.3694 14.8008C64.3694 17.9993 61.7671 20.6015 58.5686 20.6015ZM58.5686 12.8672C57.5021 12.8672 56.6351 13.7348 56.6351 14.8008C56.6351 15.8673 57.5021 16.7344 58.5686 16.7344C59.6346 16.7344 60.5022 15.8673 60.5022 14.8008C60.5022 13.7348 59.6346 12.8672 58.5686 12.8672Z" fill="black"/>
</svg>
