<svg width="12" height="12" viewBox="0 0 12 12" fill="none" xmlns="http://www.w3.org/2000/svg">
<path d="M11.7084 5.29285L10.89 4.47458C10.6958 4.28033 10.5366 3.89648 10.5366 3.6212V2.46395C10.5366 1.91345 10.0869 1.46374 9.53652 1.46344H8.3788C8.10384 1.46344 7.71955 1.30398 7.52528 1.10988L6.707 0.291605C6.31819 -0.0972016 5.68159 -0.0972016 5.29278 0.291605L4.4745 1.11047C4.28009 1.30471 3.89535 1.46374 3.62098 1.46374H2.46373C1.91397 1.46374 1.46366 1.91345 1.46366 2.46395V3.62123C1.46366 3.89543 1.30452 4.28048 1.11025 4.47461L0.291825 5.29288C-0.0972748 5.68169 -0.0972748 6.31829 0.291825 6.70772L1.11025 7.52599C1.30464 7.72024 1.46366 8.10515 1.46366 8.37937V9.53665C1.46366 10.0866 1.91397 10.5369 2.46373 10.5369H3.62101C3.89597 10.5369 4.28026 10.696 4.47453 10.8901L5.29281 11.7087C5.68162 12.0972 6.31822 12.0972 6.70703 11.7087L7.52531 10.8901C7.71972 10.6959 8.10387 10.5369 8.37883 10.5369H9.53655C10.0869 10.5369 10.5366 10.0866 10.5366 9.53665V8.37937C10.5366 8.10397 10.6959 7.72012 10.89 7.52599L11.7085 6.70772C12.0969 6.31829 12.0969 5.68166 11.7084 5.29285ZM5.20609 8.25017L2.9997 6.04348L3.70682 5.33651L5.20627 6.83595L8.29287 3.75008L8.99982 4.45706L5.20609 8.25017Z" fill="white"/>
</svg>
