<svg width="52" height="52" viewBox="0 0 52 52" fill="none" xmlns="http://www.w3.org/2000/svg">
<g clip-path="url(#clip0_1696_342)">
<path d="M47.0993 4.90054C40.5652 -1.63358 29.9339 -1.63348 23.3998 4.90064C18.9366 9.36381 17.3864 15.9411 19.3189 21.9084L0.446367 40.7811C0.160672 41.0667 0 41.4535 0 41.8582V50.4766C0 51.3187 0.681383 52 1.52344 52H10.1418C10.5465 52 10.9333 51.8394 11.2189 51.5537L13.3731 49.3979C13.7019 49.0692 13.8626 48.608 13.809 48.1452L13.5412 45.8303L16.7488 45.5283C17.4778 45.4598 18.0535 44.8841 18.122 44.1551L18.424 40.9475L20.739 41.2168C21.1689 41.2747 21.6018 41.1304 21.9276 40.8419C22.2519 40.5518 22.4379 40.1382 22.4379 39.7038V36.8672H25.2229C25.6276 36.8672 26.0144 36.7066 26.3 36.4209L30.2068 32.5658C36.1726 34.4998 42.6361 33.0664 47.0993 28.6002C53.6334 22.0661 53.6334 11.4347 47.0993 4.90054ZM42.7895 15.6733C41.0072 17.4556 38.1091 17.4556 36.3268 15.6733C34.5445 13.891 34.5445 10.9929 36.3268 9.21055C38.1091 7.42823 41.0072 7.42823 42.7895 9.21055C44.5718 10.9929 44.5717 13.891 42.7895 15.6733Z" fill="#564949"/>
</g>
<defs>
<clipPath id="clip0_1696_342">
<rect width="52" height="52" fill="white"/>
</clipPath>
</defs>
</svg>
