<svg width="58" height="58" viewBox="0 0 58 58" fill="none" xmlns="http://www.w3.org/2000/svg">
<g clip-path="url(#clip0_1696_368)">
<path d="M40.6431 20.5476L25.9355 32.5694L25.2434 33.1362C25.0914 33.2567 24.9921 33.4316 24.9666 33.6239L24.8117 34.9026L24.3866 38.4946C24.3905 38.5383 24.3769 38.5818 24.3488 38.6155C24.3207 38.6492 24.2804 38.6703 24.2367 38.6742C24.193 38.6782 24.1495 38.6646 24.1158 38.6364C24.0821 38.6083 24.061 38.568 24.0571 38.5243L22.8608 34.9322L21.625 31.2578C21.5723 31.0931 21.579 30.9152 21.6441 30.755C21.7091 30.5948 21.8283 30.4625 21.9809 30.3812L37.285 21.6087L40.1652 19.961C40.5838 19.7171 41.0122 20.2444 40.6431 20.5476Z" fill="#564949"/>
<path d="M50.0909 0H7.90909C5.81147 0 3.79976 0.833277 2.31652 2.31652C0.833277 3.79976 0 5.81147 0 7.90909L0 50.0909C0 52.1885 0.833277 54.2002 2.31652 55.6835C3.79976 57.1667 5.81147 58 7.90909 58H50.0909C52.1885 58 54.2002 57.1667 55.6835 55.6835C57.1667 54.2002 58 52.1885 58 50.0909V7.90909C58 5.81147 57.1667 3.79976 55.6835 2.31652C54.2002 0.833277 52.1885 0 50.0909 0ZM47.0888 16.787L41.4272 41.8028C41.1602 42.976 39.6707 43.5066 38.626 42.7915L30.0776 36.9915L25.7243 41.1075C25.5468 41.2741 25.3313 41.3948 25.0966 41.4592C24.8619 41.5237 24.6149 41.5299 24.3773 41.4773C24.1396 41.4247 23.9184 41.3149 23.7327 41.1574C23.5471 40.9999 23.4027 40.7995 23.312 40.5736L21.7401 35.96L20.1682 31.3464L11.7417 29.0395C11.5061 28.9881 11.2941 28.8603 11.1386 28.6759C10.9832 28.4915 10.893 28.261 10.8821 28.0201C10.8712 27.7792 10.9402 27.5414 11.0784 27.3438C11.2165 27.1461 11.4161 26.9997 11.6461 26.9272L44.1986 15.1986L44.7984 14.9844C46.0606 14.5428 47.3656 15.5644 47.0888 16.787Z" fill="#564949"/>
</g>
<defs>
<clipPath id="clip0_1696_368">
<rect width="58" height="58" fill="white"/>
</clipPath>
</defs>
</svg>
