<svg width="890" height="146" viewBox="0 0 890 146" fill="none" xmlns="http://www.w3.org/2000/svg">
<mask id="path-1-inside-1_1696_460" fill="white">
<path d="M865 0C878.807 0 890 11.1929 890 25V93C890 106.807 878.807 118 865 118H472.853L445.284 145.568L417.716 118H25C11.1929 118 3.2215e-07 106.807 0 93V25C3.2215e-07 11.1929 11.1929 3.62395e-07 25 0H865Z"/>
</mask>
<path d="M890 25H892V25H890ZM890 93H892V93H890ZM865 118V120V120V118ZM472.853 118V116H472.024L471.438 116.586L472.853 118ZM445.284 145.568L443.87 146.983L445.284 148.397L446.698 146.983L445.284 145.568ZM417.716 118L419.13 116.586L418.544 116H417.716V118ZM0 93H-2V93H0ZM0 25H-2V25H0ZM25 0V-2V-2V0ZM865 0V2C877.703 2 888 12.2975 888 25H890H892C892 10.0883 879.912 -2 865 -2V0ZM890 25H888V93H890H892V25H890ZM890 93H888C888 105.703 877.703 116 865 116V118V120C879.912 120 892 107.912 892 93H890ZM865 118V116H472.853V118V120H865V118ZM472.853 118L471.438 116.586L443.87 144.154L445.284 145.568L446.698 146.983L474.267 119.414L472.853 118ZM445.284 145.568L446.698 144.154L419.13 116.586L417.716 118L416.302 119.414L443.87 146.983L445.284 145.568ZM417.716 118V116H25V118V120H417.716V118ZM25 118V116C12.2975 116 2 105.703 2 93H0H-2C-2 107.912 10.0883 120 25 120V118ZM0 93H2V25H0H-2V93H0ZM0 25H2C2 12.2975 12.2975 2 25 2V0V-2C10.0883 -2 -2 10.0883 -2 25H0ZM25 0V2H865V0V-2H25V0Z" fill="#7C4C2A" mask="url(#path-1-inside-1_1696_460)"/>
</svg>
