<svg width="59" height="59" viewBox="0 0 59 59" fill="none" xmlns="http://www.w3.org/2000/svg">
<path d="M53.0984 14.9344V5.53125C53.0984 2.48906 50.6094 0 47.5672 0H11.4297C8.3875 0 5.89844 2.48906 5.89844 5.53125V14.9344H53.0984ZM43.1422 6.54531H43.8797C44.8937 6.54531 45.7234 7.375 45.7234 8.38906C45.7234 9.40313 44.8937 10.2328 43.8797 10.2328H43.1422C42.1281 10.2328 41.2984 9.40313 41.2984 8.38906C41.2984 7.375 42.1281 6.54531 43.1422 6.54531ZM35.8594 6.54531H36.5969C37.6109 6.54531 38.4406 7.375 38.4406 8.38906C38.4406 9.40313 37.6109 10.2328 36.5969 10.2328H35.8594C34.8453 10.2328 34.0156 9.40313 34.0156 8.38906C34.0156 7.375 34.8453 6.54531 35.8594 6.54531Z" fill="#564949"/>
<path d="M30.8813 40.9314C29.0375 43.0517 26.825 44.158 24.3359 44.2501C24.2438 44.2501 24.1516 44.2501 23.9672 44.2501C22.5844 44.2501 21.2938 43.8814 20.1875 43.4205C21.6625 47.0158 25.2578 49.597 29.4062 49.597C34.6609 49.597 38.9016 45.5408 39.3625 40.4705C38.4406 39.8251 36.6891 38.6267 34.6609 38.7189C33.3703 38.9033 32.0797 39.5486 30.8813 40.9314Z" fill="#564949"/>
<path d="M28.1164 38.5348C29.9602 36.4145 32.1727 35.3082 34.6617 35.216C36.1367 35.1238 37.5195 35.4926 38.718 36.0457C37.243 32.4504 33.6477 29.8691 29.4992 29.8691C24.2445 29.8691 20.0039 33.9254 19.543 38.9957C20.4648 39.641 22.2164 40.8395 24.2445 40.7473C25.6273 40.5629 26.918 39.8254 28.1164 38.5348Z" fill="#564949"/>
<path d="M5.89844 18.6221V53.4689C5.89844 56.5111 8.3875 59.0002 11.4297 59.0002H47.475C50.5172 59.0002 53.0062 56.5111 53.0062 53.4689V18.6221H5.89844ZM29.4984 53.3768C22.0312 53.3768 15.8547 47.2924 15.8547 39.8252C15.8547 32.2658 21.9391 26.1814 29.4984 26.1814C36.9656 26.1814 43.1422 32.2658 43.1422 39.733C43.1422 47.2002 37.0578 53.3768 29.4984 53.3768Z" fill="#564949"/>
</svg>
