<svg width="55" height="55" viewBox="0 0 55 55" fill="none" xmlns="http://www.w3.org/2000/svg">
<g clip-path="url(#clip0_1696_284)">
<path d="M27.6285 48.1955C31.1772 48.1955 34.0539 45.3188 34.0539 41.7701C34.0539 38.2215 31.1772 35.3447 27.6285 35.3447C24.0799 35.3447 21.2031 38.2215 21.2031 41.7701C21.2031 45.3188 24.0799 48.1955 27.6285 48.1955Z" fill="#564949"/>
<path d="M42.9852 26.2889C42.8899 26.1909 42.7893 26.1035 42.6913 26.0134L42.4026 25.7406C42.3549 25.6903 42.3019 25.6532 42.241 25.6055C33.9325 18.0571 21.2167 18.3564 13.2869 26.2862L12.3573 27.2185L11.0701 28.5057C9.50216 30.0737 9.5101 32.6295 11.0807 34.2001C12.6539 35.776 15.2098 35.7787 16.7751 34.2107L18.9946 31.9912C24.0375 26.951 32.24 26.951 37.2803 31.9886L38.8826 33.5406C40.4347 35.0927 42.9667 35.09 44.5267 33.5274C45.2816 32.7752 45.6974 31.7714 45.7 30.704C45.7027 29.6419 45.2921 28.6381 44.5373 27.8886L42.9852 26.2889Z" fill="#564949"/>
<path d="M53.933 18.3463L52.5981 17.0114C52.5928 17.0061 52.5902 16.9981 52.5796 16.9955L51.5254 15.9361C51.34 15.7533 51.1387 15.5944 50.9269 15.4567C37.3848 3.5673 16.7869 3.9328 3.67655 16.5452C3.61299 16.6035 3.54147 16.6432 3.47791 16.7068L1.06772 19.1196C-0.362503 20.5472 -0.354557 22.87 1.08361 24.3082C2.51913 25.7437 4.84192 25.7543 6.27214 24.3214L8.68233 21.9139C8.69822 21.8927 8.71146 21.8741 8.72736 21.8609C19.3295 11.6189 36.1479 11.5554 46.8348 21.6517L48.7312 23.5507C50.1588 24.9783 52.4869 24.973 53.9224 23.5374C55.3553 22.0993 55.3606 19.7738 53.933 18.3463Z" fill="#564949"/>
</g>
<defs>
<clipPath id="clip0_1696_284">
<rect width="55" height="55" fill="white"/>
</clipPath>
</defs>
</svg>
